# xmcd
#
# Track frame offsets:
#	150
#	13490
#	28282
#	42060
#	57237
#	70450
#	84255
#	96605
#	109080
#	120997
#	132437
#	144885
#	157260
#	170192
#	182962
#	195697
#	207227
#	218602
#
# Disc length: 3101 seconds
#
# Revision: 0
# Processed by: cddbd v1.5.2PL0 Copyright (c) Steve Scherf et al.
# Submitted via: EasyCDDAExtractor 12.0.6 .1
#
DISCID=120c1b12
DTITLE=吳鶯音 - Denon Mastersonic
DYEAR=1997
DGENRE=
TTITLE0=小冤家
TTITLE1=好春宵
TTITLE2=春風帶來煩惱
TTITLE3=當初見不到你
TTITLE4=你還不走過來
TTITLE5=大地回春
TTITLE6=隴上一朵玫瑰
TTITLE7=岷江夜曲
TTITLE8=月落烏啼
TTITLE9=風流債
TTITLE10=恨不鍾情在當年
TTITLE11=紅燈綠酒夜
TTITLE12=我有一段情
TTITLE13=南風
TTITLE14=聽我細訴
TTITLE15=明月千里寄相思
TTITLE16=斷腸紅
TTITLE17=送郎一朵牽牛花
EXTD=
EXTT0=
EXTT1=
EXTT2=
EXTT3=
EXTT4=
EXTT5=
EXTT6=
EXTT7=
EXTT8=
EXTT9=
EXTT10=
EXTT11=
EXTT12=
EXTT13=
EXTT14=
EXTT15=
EXTT16=
EXTT17=
PLAYORDER=
